# xmcd
#
# Track frame offsets:
# 150
# 15978
# 20455
# 24917
# 34978
# 46254
# 57245
# 68320
# 88868
#
# Disc length: 1512 seconds
#
# Revision: 0
# Processed by: cddbd v1.4PL0 Copyright (c) Steve Scherf et al.
# Submitted via: Audion 3.0.2 (http://www.panic.com/audion/)
#
DISCID=6005e609
DTITLE=Frederick Moore - Archive98.1&98.2
DYEAR=1900
DGENRE=
TTITLE0=SteelWool 97.1
TTITLE1=Sextet 96.9
TTITLE2=Sextet 97.1
TTITLE3=Gravity Sustained
TTITLE4=The Falling 92.1
TTITLE5=The Falling 92.4 
TTITLE6=The Falling 92.4B
TTITLE7=FlaggFalling
TTITLE8=CredoSuffix94.4
EXTD=
EXTT0=
EXTT1=
EXTT2=
EXTT3=
EXTT4=
EXTT5=
EXTT6=
EXTT7=
EXTT8=
PLAYORDER=
